<svg width="556px" height="556px" viewBox="0 0 556 556" version="1.1" xmlns="http://www.w3.org/2000/svg" xmlns:xlink="http://www.w3.org/1999/xlink"><title>Slice 6 Copy@1x</title><desc>Created with Sketch.</desc><defs></defs><g id="Page-1" stroke="none" stroke-width="1" fill="none" fill-rule="evenodd"><g id="Group-20" transform="translate(0.000000, -5.000000)"><g id="Slice-6-Copy@1x(1)"><g id="Slice-6-Copy@1x"><g id="Page-1"><g id="Group-18-Copy" transform="translate(33.000000, 40.000000)" fill="#FFB1DD"><g id="Group-3"><g id="Group-17"><path d="M412.719761,416.908762 C457.930775,372.780051 486,311.167985 486,243 C486,108.794806 377.205194,0 243,0 C108.794806,0 0,108.794806 0,243 C0,310.859438 27.8157023,372.222171 72.6673813,416.308473 L79.7005285,409.199605 C36.6807701,366.925886 10,308.078757 10,243 C10,114.317653 114.317653,10 243,10 C371.682347,10 476,114.317653 476,243 C476,308.385052 449.067491,367.479679 405.690966,409.79539 L412.719761,416.908762 L412.719761,416.908762 Z" id="Combined-Shape"></path><path d="M243,10 L245,10 L245,28 L243,28 L243,10 L243,10 Z M251.105601,10.1058087 L253.104383,10.1756077 L252.755388,20.169516 L250.756606,20.099717 L251.105601,10.1058087 L251.105601,10.1058087 Z M259.202652,10.4929068 L261.19778,10.6324198 L260.500215,20.6080603 L258.505087,20.4685473 L259.202652,10.4929068 L259.202652,10.4929068 Z M267.281393,11.1608282 L269.270437,11.3698851 L268.225152,21.3151041 L266.236108,21.1060471 L267.281393,11.1608282 L267.281393,11.1608282 Z M275.332088,12.1087683 L277.312625,12.3871145 L275.920894,22.2897952 L273.940357,22.011449 L275.332088,12.1087683 L275.332088,12.1087683 Z M283.345035,13.3355852 L285.31465,13.6828816 L283.578169,23.5309591 L281.608553,23.1836627 L283.345035,13.3355852 L283.345035,13.3355852 Z M291.310575,14.8398007 L293.266871,15.2556241 L291.187754,25.0371001 L289.231458,24.6212767 L291.310575,14.8398007 L291.310575,14.8398007 Z M299.219109,16.6196024 L301.159701,17.1034462 L298.740482,26.8064035 L296.79989,26.3225597 L299.219109,16.6196024 L299.219109,16.6196024 Z M307.061106,18.6728457 L308.983629,19.2241204 L306.227255,28.8367373 L304.304732,28.2854626 L307.061106,18.6728457 L307.061106,18.6728457 Z M314.827112,20.9970564 L316.729225,21.6150904 L313.639055,31.1256555 L311.736942,30.5076215 L314.827112,20.9970564 L314.827112,20.9970564 Z M322.50777,23.5894338 L324.387155,24.273474 L320.966954,33.6704003 L319.087569,32.98636 L322.50777,23.5894338 L322.50777,23.5894338 Z M330.093822,26.4468539 L331.948189,27.1960671 L328.202123,36.4679056 L326.347756,35.7186925 L330.093822,26.4468539 L330.093822,26.4468539 Z M337.576124,29.5658735 L339.403215,30.3793468 L335.335849,39.5148013 L333.508758,38.701328 L337.576124,29.5658735 L337.576124,29.5658735 Z M344.94566,32.9427338 L346.743248,33.8194761 L342.359536,42.8074165 L340.561948,41.9306742 L344.94566,32.9427338 L344.94566,32.9427338 Z M352.193546,36.5733654 L353.959441,37.5123085 L349.264726,46.3417844 L347.498831,45.4028413 L352.193546,36.5733654 L352.193546,36.5733654 Z M359.311048,40.453393 L361.043099,41.453393 L352.043099,57.0418503 L350.311048,56.0418503 L359.311048,40.453393 L359.311048,40.453393 Z M366.289588,44.5781409 L367.985684,45.6379794 L362.686491,54.1184603 L360.990395,53.0586218 L366.289588,44.5781409 L366.289588,44.5781409 Z M373.120753,48.9426381 L374.778828,50.0610239 L369.186899,58.3513996 L367.528824,57.2330138 L373.120753,48.9426381 L373.120753,48.9426381 Z M379.796312,53.5416249 L381.414346,54.7171954 L375.536494,62.8073654 L373.91846,61.6317949 L379.796312,53.5416249 L379.796312,53.5416249 Z M386.308218,58.369559 L387.88424,59.6008819 L381.727625,67.4809895 L380.151604,66.2496665 L386.308218,58.369559 L386.308218,58.369559 Z M392.648624,63.420622 L394.180712,64.7061972 L387.752836,72.3666416 L386.220747,71.0810664 L392.648624,63.420622 L392.648624,63.420622 Z M398.809886,68.6887266 L400.296176,70.0269879 L393.60487,77.4584361 L392.11858,76.1201749 L398.809886,68.6887266 L398.809886,68.6887266 Z M404.784579,74.1675241 L406.223259,75.5568409 L399.276675,82.7502389 L397.837996,81.3609221 L404.784579,74.1675241 L404.784579,74.1675241 Z M410.555607,80.4859521 L411.944924,81.9246317 L398.996807,94.4284823 L397.607491,92.9898027 L410.555607,80.4859521 L410.555607,80.4859521 Z M416.145689,85.7305405 L417.483951,87.2168302 L410.052502,93.9081362 L408.714241,92.4218466 L416.145689,85.7305405 L416.145689,85.7305405 Z M421.518413,91.8008241 L422.803988,93.332913 L415.143543,99.7607891 L413.857968,98.2287002 L421.518413,91.8008241 L421.518413,91.8008241 Z M426.677197,98.0539469 L427.90852,99.6299684 L420.028413,105.786583 L418.79709,104.210562 L426.677197,98.0539469 L426.677197,98.0539469 Z M431.615825,104.482373 L432.791396,106.100407 L424.701226,111.978259 L423.525655,110.360225 L431.615825,104.482373 L431.615825,104.482373 Z M436.328345,111.078354 L437.44673,112.736429 L429.156355,118.328358 L428.037969,116.670283 L436.328345,111.078354 L436.328345,111.078354 Z M440.809075,117.833942 L441.868914,119.530038 L426.604048,129.068585 L425.544209,127.372489 L440.809075,117.833942 L440.809075,117.833942 Z M445.052616,124.740995 L446.052616,126.473046 L437.392362,131.473046 L436.392362,129.740995 L445.052616,124.740995 L445.052616,124.740995 Z M449.053853,131.791188 L449.992796,133.557083 L441.16332,138.251799 L440.224377,136.485904 L449.053853,131.791188 L449.053853,131.791188 Z M452.807963,138.976025 L453.684705,140.773613 L444.696765,145.157325 L443.820023,143.359737 L452.807963,138.976025 L452.807963,138.976025 Z M456.310421,146.286847 L457.123895,148.113938 L447.98844,152.181304 L447.174967,150.354213 L456.310421,146.286847 L456.310421,146.286847 Z M459.557006,153.714843 L460.306219,155.56921 L451.034381,159.315276 L450.285168,157.460909 L459.557006,153.714843 L459.557006,153.714843 Z M462.543805,161.25106 L463.227845,163.130445 L453.830919,166.550647 L453.146878,164.671261 L462.543805,161.25106 L462.543805,161.25106 Z M465.267216,168.886416 L465.88525,170.78853 L456.374685,173.878699 L455.756651,171.976586 L465.267216,168.886416 L465.267216,168.886416 Z M467.723958,176.61171 L468.275233,178.534233 L458.662616,181.290607 L458.111341,179.368084 L467.723958,176.61171 L467.723958,176.61171 Z M469.911069,184.41763 L470.394913,186.358222 L460.691956,188.777441 L460.208112,186.836849 L469.911069,184.41763 L469.911069,184.41763 Z M471.825914,192.294769 L472.241737,194.251064 L462.460261,196.330181 L462.044438,194.373886 L471.825914,192.294769 L471.825914,192.294769 Z M473.466182,200.233634 L473.813479,202.203249 L463.965401,203.939731 L463.618105,201.970115 L473.466182,200.233634 L473.466182,200.233634 Z M474.829899,208.224656 L475.108245,210.205192 L465.205564,211.596923 L464.927218,209.616387 L474.829899,208.224656 L474.829899,208.224656 Z M475.915418,216.258204 L476.124475,218.247248 L458.223081,220.12876 L458.014024,218.139716 L475.915418,216.258204 L475.915418,216.258204 Z M476.721432,224.324597 L476.860945,226.319725 L466.885305,227.01729 L466.745792,225.022162 L476.721432,224.324597 L476.721432,224.324597 Z M477.246969,232.414113 L477.316768,234.412895 L467.32286,234.76189 L467.253061,232.763108 L477.246969,232.414113 L477.246969,232.414113 Z M477.491395,240.517003 L477.491395,242.517003 L467.427688,242.517003 L467.427688,240.517003 L477.491395,240.517003 L477.491395,240.517003 Z M477.439252,248.535808 L477.404348,250.535503 L467.405871,250.360979 L467.440775,248.361284 L477.439252,248.535808 L477.439252,248.535808 Z M477.12398,256.635667 L477.019308,258.632926 L467.033013,258.109567 L467.137685,256.112307 L477.12398,256.635667 L477.12398,256.635667 Z M476.527744,264.719709 L476.353432,266.712098 L466.391485,265.840541 L466.565797,263.848151 L476.527744,264.719709 L476.527744,264.719709 Z M475.651261,272.77819 L475.407523,274.763282 L465.482061,273.544589 L465.7258,271.559496 L475.651261,272.77819 L475.651261,272.77819 Z M474.495589,280.801398 L474.18272,282.776775 L464.305837,281.21243 L464.618706,279.237053 L474.495589,280.801398 L474.495589,280.801398 Z M473.062119,288.779664 L472.680501,290.742918 L462.864229,288.834828 L463.245847,286.871574 L473.062119,288.779664 L473.062119,288.779664 Z M471.352579,296.703371 L470.902677,298.652111 L461.158976,296.402601 L461.608878,294.453861 L471.352579,296.703371 L471.352579,296.703371 Z M469.369028,304.562971 L468.85139,306.494822 L459.192132,303.906632 L459.70977,301.97478 L469.369028,304.562971 L469.369028,304.562971 Z M467.113857,312.34899 L466.529113,314.261599 L456.966066,311.337882 L457.550809,309.425273 L467.113857,312.34899 L467.113857,312.34899 Z M464.589783,320.052045 L463.938646,321.943082 L446.919312,316.082855 L447.570448,314.191818 L464.589783,320.052045 L464.589783,320.052045 Z M461.799847,327.662851 L461.083111,329.530012 L451.747307,325.946332 L452.464043,324.079171 L461.799847,327.662851 L461.799847,327.662851 Z M458.747412,335.172236 L457.96595,337.013246 L448.760901,333.105934 L449.542364,331.264925 L458.747412,335.172236 L458.747412,335.172236 Z M455.436156,342.571149 L454.59092,344.383765 L445.527842,340.157582 L446.373078,338.344967 L455.436156,342.571149 L455.436156,342.571149 Z M451.87007,349.850673 L450.962089,351.632686 L442.052024,347.092781 L442.960005,345.310768 L451.87007,349.850673 L451.87007,349.850673 Z M448.05345,357.002034 L447.083831,358.751274 L438.337634,353.903178 L439.307253,352.153938 L448.05345,357.002034 L448.05345,357.002034 Z M443.990897,364.016614 L442.960821,365.730948 L434.389148,360.580568 L435.419224,358.866233 L443.990897,364.016614 L443.990897,364.016614 Z M439.687306,370.885957 L438.598028,372.563298 L430.211322,367.116908 L431.3006,365.439567 L439.687306,370.885957 L439.687306,370.885957 Z M435.147863,377.601785 L434.00071,379.240089 L425.80919,373.504324 L426.956343,371.86602 L435.147863,377.601785 L435.147863,377.601785 Z M430.378039,384.156003 L429.174409,385.753274 L421.188054,379.735124 L422.391684,378.137852 L430.378039,384.156003 L430.378039,384.156003 Z M425.383583,390.540712 L424.124942,392.095003 L416.353482,385.8018 L417.612123,384.247508 L425.383583,390.540712 L425.383583,390.540712 Z M420.170513,396.748216 L418.858395,398.257635 L411.311299,391.697045 L412.623417,390.187626 L420.170513,396.748216 L420.170513,396.748216 Z M414.745111,402.771034 L413.381115,404.233742 L406.067578,397.413758 L407.431574,395.951051 L414.745111,402.771034 L414.745111,402.771034 Z M408.196392,409.235442 L406.782179,410.649655 L394.054256,397.921733 L395.46847,396.50752 L408.196392,409.235442 L408.196392,409.235442 Z M80.1219872,409.560317 L78.7077736,408.146104 L82.0151445,404.611082 L91.4356957,395.418182 L92.8499092,396.832395 L80.1219872,409.560317 L80.1219872,409.560317 Z M74.6188854,404.233742 L73.2548887,402.771034 L80.5684257,395.951051 L81.9324224,397.413758 L74.6188854,404.233742 L74.6188854,404.233742 Z M69.1416054,398.257635 L67.8294873,396.748216 L75.3765831,390.187626 L76.6887012,391.697045 L69.1416054,398.257635 L69.1416054,398.257635 Z M63.875058,392.095003 L62.6164172,390.540712 L70.3878768,384.247508 L71.6465176,385.8018 L63.875058,392.095003 L63.875058,392.095003 Z M58.8255908,385.753274 L57.6219608,384.156003 L65.6083159,378.137852 L66.8119459,379.735124 L58.8255908,385.753274 L58.8255908,385.753274 Z M53.9992899,379.240089 L52.852137,377.601785 L61.0436575,371.86602 L62.1908103,373.504324 L53.9992899,379.240089 L53.9992899,379.240089 Z M49.4019723,372.563298 L48.3126943,370.885957 L56.6993999,365.439567 L57.788678,367.116908 L49.4019723,372.563298 L49.4019723,372.563298 Z M45.0391792,365.730948 L44.009103,364.016614 L52.5807761,358.866233 L53.6108522,360.580568 L45.0391792,365.730948 L45.0391792,365.730948 Z M40.916169,358.751274 L39.9465497,357.002034 L48.6927468,352.153938 L49.6623661,353.903178 L40.916169,358.751274 L40.916169,358.751274 Z M37.0379112,351.632686 L36.1299302,349.850673 L45.0399954,345.310768 L45.9479764,347.092781 L37.0379112,351.632686 L37.0379112,351.632686 Z M33.4090802,344.383765 L32.5638437,342.571149 L41.6269216,338.344967 L42.4721581,340.157582 L33.4090802,344.383765 L33.4090802,344.383765 Z M30.0340501,337.013246 L29.2525879,335.172236 L38.4576364,331.264925 L39.2390987,333.105934 L30.0340501,337.013246 L30.0340501,337.013246 Z M26.9168889,329.530012 L26.200153,327.662851 L35.5359573,324.079171 L36.2526932,325.946332 L26.9168889,329.530012 L26.9168889,329.530012 Z M24.2792794,322.245354 L23.6281431,320.354317 L40.6474775,314.49409 L41.2986138,316.385128 L24.2792794,322.245354 L24.2792794,322.245354 Z M21.4708866,314.261599 L20.8861432,312.34899 L30.4491907,309.425273 L31.0339341,311.337882 L21.4708866,314.261599 L21.4708866,314.261599 Z M19.14861,306.494822 L18.6309719,304.562971 L28.2902301,301.97478 L28.8078682,303.906632 L19.14861,306.494822 L19.14861,306.494822 Z M17.0973231,298.652111 L16.647421,296.703371 L26.3911216,294.453861 L26.8410238,296.402601 L17.0973231,298.652111 L17.0973231,298.652111 Z M15.3194987,290.742918 L14.9378807,288.779664 L24.7541525,286.871574 L25.1357705,288.834828 L15.3194987,290.742918 L15.3194987,290.742918 Z M13.8172798,282.776775 L13.5044108,280.801398 L23.3812943,279.237053 L23.6941632,281.21243 L13.8172798,282.776775 L13.8172798,282.776775 Z M12.5924773,274.763282 L12.3487386,272.77819 L22.2742001,271.559496 L22.5179388,273.544589 L12.5924773,274.763282 L12.5924773,274.763282 Z M11.6465679,266.712098 L11.4722564,264.719709 L21.4342034,263.848151 L21.6085149,265.840541 L11.6465679,266.712098 L11.6465679,266.712098 Z M10.9806919,258.632926 L10.87602,256.635667 L20.8623154,256.112307 L20.9669873,258.109567 L10.9806919,258.632926 L10.9806919,258.632926 Z M10.5956524,250.535503 L10.5607476,248.535808 L20.5592245,248.361284 L20.5941294,250.360979 L10.5956524,250.535503 L10.5956524,250.535503 Z M10.6832316,234.412895 L10.7530306,232.414113 L20.7469389,232.763108 L20.6771399,234.76189 L10.6832316,234.412895 L10.6832316,234.412895 Z M10.482421,242.083399 L10.55222,240.084618 L20.5461283,240.433613 L20.4763293,242.432394 L10.482421,242.083399 L10.482421,242.083399 Z M11.1390547,226.319725 L11.2785676,224.324597 L21.2542081,225.022162 L21.1146952,227.01729 L11.1390547,226.319725 L11.1390547,226.319725 Z M11.8974373,218.829134 L12.1064942,216.84009 L30.0078883,218.721603 L29.7988314,220.710646 L11.8974373,218.829134 L11.8974373,218.829134 Z M12.8917551,210.205192 L13.1701013,208.224656 L23.072782,209.616387 L22.7944358,211.596923 L12.8917551,210.205192 L12.8917551,210.205192 Z M14.1865212,202.203249 L14.5338175,200.233634 L24.3818951,201.970115 L24.0345987,203.939731 L14.1865212,202.203249 L14.1865212,202.203249 Z M15.758263,194.251064 L16.1740864,192.294769 L25.9555624,194.373886 L25.539739,196.330181 L15.758263,194.251064 L15.758263,194.251064 Z M17.6050868,186.358222 L18.0889306,184.41763 L27.7918878,186.836849 L27.3080441,188.777441 L17.6050868,186.358222 L17.6050868,186.358222 Z M19.7247672,178.534233 L20.2760419,176.61171 L29.8886588,179.368084 L29.3373841,181.290607 L19.7247672,178.534233 L19.7247672,178.534233 Z M22.11475,170.78853 L22.732784,168.886416 L32.2433491,171.976586 L31.6253151,173.878699 L22.11475,170.78853 L22.11475,170.78853 Z M24.7721552,163.130445 L25.4561955,161.25106 L34.8531217,164.671261 L34.1690814,166.550647 L24.7721552,163.130445 L24.7721552,163.130445 Z M27.6937806,155.56921 L28.4429937,153.714843 L37.7148323,157.460909 L36.9656191,159.315276 L27.6937806,155.56921 L27.6937806,155.56921 Z M30.8761053,148.113938 L31.6895786,146.286847 L40.8250332,150.354213 L40.0115599,152.181304 L30.8761053,148.113938 L30.8761053,148.113938 Z M34.3152946,140.773613 L35.1920369,138.976025 L44.1799773,143.359737 L43.303235,145.157325 L34.3152946,140.773613 L34.3152946,140.773613 Z M38.0072038,133.557083 L38.9461469,131.791188 L47.7756228,136.485904 L46.8366797,138.251799 L38.0072038,133.557083 L38.0072038,133.557083 Z M41.9473838,126.473046 L42.9473838,124.740995 L51.6076378,129.740995 L50.6076378,131.473046 L41.9473838,126.473046 L41.9473838,126.473046 Z M46.2867854,119.285536 L47.3466239,117.58944 L62.6114896,127.127987 L61.5516511,128.824083 L46.2867854,119.285536 L46.2867854,119.285536 Z M50.5532695,112.736429 L51.6716553,111.078354 L59.9620311,116.670283 L58.8436452,118.328358 L50.5532695,112.736429 L50.5532695,112.736429 Z M55.2086041,106.100407 L56.3841746,104.482373 L64.4743446,110.360225 L63.2987741,111.978259 L55.2086041,106.100407 L55.2086041,106.100407 Z M60.0914798,99.6299684 L61.3228028,98.0539469 L69.2029103,104.210562 L67.9715874,105.786583 L60.0914798,99.6299684 L60.0914798,99.6299684 Z M65.1960121,93.332913 L66.4815873,91.8008241 L74.1420318,98.2287002 L72.8564566,99.7607891 L65.1960121,93.332913 L65.1960121,93.332913 Z M70.5824639,87.1740488 L71.9207252,85.6877591 L79.3521734,92.3790652 L78.0139122,93.8653548 L70.5824639,87.1740488 L70.5824639,87.1740488 Z M76.0451801,81.2890913 L77.4344968,79.8504117 L84.6278948,86.7969954 L83.2385781,88.235675 L76.0451801,81.2890913 L76.0451801,81.2890913 Z M81.7767409,75.5568409 L83.2154205,74.1675241 L90.1620042,81.3609221 L88.7233246,82.7502389 L81.7767409,75.5568409 L81.7767409,75.5568409 Z M87.7038244,70.0269879 L89.1901141,68.6887266 L95.8814201,76.1201749 L94.3951305,77.4584361 L87.7038244,70.0269879 L87.7038244,70.0269879 Z M93.8192875,64.7061972 L95.3513764,63.420622 L101.779253,71.0810664 L100.247164,72.3666416 L93.8192875,64.7061972 L93.8192875,64.7061972 Z M100.11576,59.6008819 L101.691782,58.369559 L107.848396,66.2496665 L106.272375,67.4809895 L100.11576,59.6008819 L100.11576,59.6008819 Z M106.585654,54.7171954 L108.203688,53.5416249 L114.08154,61.6317949 L112.463506,62.8073654 L106.585654,54.7171954 L106.585654,54.7171954 Z M113.221172,50.0610239 L114.879247,48.9426381 L120.471176,57.2330138 L118.813101,58.3513996 L113.221172,50.0610239 L113.221172,50.0610239 Z M120.014316,45.6379794 L121.710412,44.5781409 L127.009605,53.0586218 L125.313509,54.1184603 L120.014316,45.6379794 L120.014316,45.6379794 Z M126.91694,41.7361963 L128.648991,40.7361963 L137.648991,56.3246535 L135.91694,57.3246535 L126.91694,41.7361963 L126.91694,41.7361963 Z M134.040559,37.5123085 L135.806454,36.5733654 L140.501169,45.4028413 L138.735274,46.3417844 L134.040559,37.5123085 L134.040559,37.5123085 Z M141.256752,33.8194761 L143.05434,32.9427338 L147.438052,41.9306742 L145.640464,42.8074165 L141.256752,33.8194761 L141.256752,33.8194761 Z M148.596785,30.3793468 L150.423876,29.5658735 L154.491242,38.701328 L152.664151,39.5148013 L148.596785,30.3793468 L148.596785,30.3793468 Z M156.051811,27.1960671 L157.906178,26.4468539 L161.652244,35.7186925 L159.797877,36.4679056 L156.051811,27.1960671 L156.051811,27.1960671 Z M163.612845,24.273474 L165.49223,23.5894338 L168.912431,32.98636 L167.033046,33.6704003 L163.612845,24.273474 L163.612845,24.273474 Z M171.270775,21.6150904 L173.172888,20.9970564 L176.263058,30.5076215 L174.360945,31.1256555 L171.270775,21.6150904 L171.270775,21.6150904 Z M179.016371,19.2241204 L180.938894,18.6728457 L183.695268,28.2854626 L181.772745,28.8367373 L179.016371,19.2241204 L179.016371,19.2241204 Z M186.840299,17.1034462 L188.780891,16.6196024 L191.20011,26.3225597 L189.259518,26.8064035 L186.840299,17.1034462 L186.840299,17.1034462 Z M194.733129,15.2556241 L196.689425,14.8398007 L198.768542,24.6212767 L196.812246,25.0371001 L194.733129,15.2556241 L194.733129,15.2556241 Z M202.68535,13.6828816 L204.654965,13.3355852 L206.391447,23.1836627 L204.421831,23.5309591 L202.68535,13.6828816 L202.68535,13.6828816 Z M210.687375,12.3871145 L212.667912,12.1087683 L214.059643,22.011449 L212.079106,22.2897952 L210.687375,12.3871145 L210.687375,12.3871145 Z M218.729563,11.3698851 L220.718607,11.1608282 L221.763892,21.1060471 L219.774848,21.3151041 L218.729563,11.3698851 L218.729563,11.3698851 Z M226.80222,10.6324198 L228.797348,10.4929068 L229.494913,20.4685473 L227.499785,20.6080603 L226.80222,10.6324198 L226.80222,10.6324198 Z M234.895617,10.1756077 L236.894399,10.1058087 L237.243394,20.099717 L235.244612,20.169516 L234.895617,10.1756077 L234.895617,10.1756077 Z" id="Rectangle-20" opacity="0.6"></path></g></g></g><g id="Group-19-Copy" font-size="24" fill="#FF89CB" font-weight="normal"><g id="优秀" transform="translate(503.268202, 143.373979) rotate(61.000000) translate(-503.268202, -143.373979) translate(478.768202, 126.373979)" font-family="PingFangSC-Regular, PingFang SC"><text><tspan x="0.066656" y="25.490232">优秀</tspan></text></g><g id="中等" transform="translate(55.590282, 138.395554) rotate(-57.000000) translate(-55.590282, -138.395554) translate(31.090282, 121.395554)" font-family="PingFangSC-Regular, PingFang SC"><text><tspan x="0.9094012" y="25.614638">中等</tspan></text></g><g id="良好" transform="translate(278.501427, 17.996223) rotate(-1.000000) translate(-278.501427, -17.996223) translate(254.001427, 0.996223)" font-family="PingFangSC-Regular, PingFang SC"><text><tspan x="0.284309" y="25.4163447">良好</tspan></text></g><g id="400" transform="translate(75.688077, 457.246952) rotate(225.000000) translate(-75.688077, -457.246952) translate(54.688077, 442.246952)" font-family="Helvetica"><text><tspan x="0.395184" y="23.895184">400</tspan></text></g><g id="550" transform="translate(18.229232, 251.495158) rotate(-83.000000) translate(-18.229232, -251.495158) translate(-2.770768, 236.495158)" font-family="Helvetica"><text><tspan x="0.829306067" y="23.118029">550</tspan></text></g><g id="625" transform="translate(146.083716, 52.761246) rotate(-31.000000) translate(-146.083716, -52.761246) translate(125.083716, 37.761246)" font-family="Helvetica"><text><tspan x="0.611398" y="23.2296874">625</tspan></text></g><g id="675" transform="translate(412.123429, 54.279090) rotate(29.000000) translate(-412.123429, -54.279090) translate(391.123429, 39.279090)" font-family="Helvetica"><text><tspan x="0.522134" y="23.8781782">675</tspan></text></g><g id="一般" transform="translate(28.943127, 375.613384) rotate(247.000000) translate(-28.943127, -375.613384) translate(4.443127, 358.613384)" font-family="PingFangSC-Regular, PingFang SC"><text><tspan x="0.61464736" y="25.519672">一般</tspan></text></g><g id="Group-4" transform="translate(478.886079, 456.725137) rotate(100.000000) translate(-478.886079, -456.725137) translate(447.386079, 428.725137)" font-family="Helvetica"><g id="1000" transform="translate(31.307898, 28.057289) rotate(34.000000) translate(-31.307898, -28.057289) translate(3.807898, 13.057289)"><text><tspan x="0.81025678" y="23.2144761">1000</tspan></text></g></g><g id="725" transform="translate(536.497916, 252.890490) rotate(86.000000) translate(-536.497916, -252.890490) translate(514.997916, 235.890490)" font-family="PingFangSC-Regular, PingFang SC"><text><tspan x="0.738597" y="25.088865">725</tspan></text></g><g id="极好" transform="translate(527.639203, 372.182093) rotate(114.000000) translate(-527.639203, -372.182093) translate(503.139203, 355.182093)" font-family="PingFangSC-Regular, PingFang SC"><text><tspan x="0.835179" y="25.136246">极好</tspan></text></g></g></g></g></g></g></g></svg>