<svg width="556px" height="556px" viewBox="0 0 556 556" version="1.1" xmlns="http://www.w3.org/2000/svg" xmlns:xlink="http://www.w3.org/1999/xlink"><title>Slice 6@1x</title><desc>Created with Sketch.</desc><defs><linearGradient x1="4.92349682%" y1="100%" x2="18.7140983%" y2="35.740657%" id="linearGradient-1"><stop stop-color="#FFD053" offset="0%"></stop><stop stop-color="#FFA858" offset="100%"></stop></linearGradient><path d="M381.53105,382.399016 C422.274619,341.923032 447.5,285.851573 447.5,223.889702 C447.5,100.481119 347.435642,0.438695066 224,0.438695066 C100.564358,0.438695066 0.5,100.481119 0.5,223.889702 C0.5,285.342979 25.312971,341.002146 65.4687997,381.399166 L117.207533,329.660433 C90.2618869,302.447443 73.625,265.035695 73.625,223.743948 C73.625,140.541365 141.174038,73.092344 224.5,73.092344 C307.825962,73.092344 375.375,140.541365 375.375,223.743948 C375.375,265.798109 358.118072,303.827667 330.289384,331.15735 L381.53105,382.399016 Z" id="path-2"></path><linearGradient x1="23.1270352%" y1="71.0506877%" x2="95.4195665%" y2="31.4294801%" id="linearGradient-4"><stop stop-color="#FFA958" offset="0%"></stop><stop stop-color="#FF805A" offset="100%"></stop></linearGradient><linearGradient x1="73.8393176%" y1="20.9297594%" x2="50%" y2="93.2371958%" id="linearGradient-5"><stop stop-color="#FF4693" offset="0%"></stop><stop stop-color="#FF3E94" offset="100%"></stop></linearGradient><linearGradient x1="45.0218672%" y1="18.8482552%" x2="49.8236977%" y2="97.1259835%" id="linearGradient-6"><stop stop-color="#FF5765" offset="0%"></stop><stop stop-color="#FF4693" offset="100%"></stop></linearGradient><linearGradient x1="62.3720623%" y1="83.1541574%" x2="10.7509507%" y2="37.9857529%" id="linearGradient-7"><stop stop-color="#FF5669" offset="0%"></stop><stop stop-color="#FF805A" offset="100%"></stop></linearGradient></defs><g id="Page-1" stroke="none" stroke-width="1" fill="none" fill-rule="evenodd"><g id="Group-18" transform="translate(33.000000, 35.000000)"><g id="Path-11" transform="translate(20.000000, 20.000000)"><mask id="mask-3" fill="white"><use xlink:href="#path-2"></use></mask><use id="Mask" fill="url(#linearGradient-1)" xlink:href="#path-2"></use><polygon fill="url(#linearGradient-4)" mask="url(#mask-3)" points="27.5416978 96.7755017 164.635397 187.818211 223.691513 110.498198 224.890882 -33.5081049 32.9644864 51.0559608"></polygon><polygon id="Path-3" fill="url(#linearGradient-5)" mask="url(#mask-3)" points="384.875776 403.783138 457.072098 320.147222 449.449072 281.374936 300.077196 252 248 254.977429 282.505818 327.573101 342.150435 384.594142"></polygon><polygon id="Path-2" fill="url(#linearGradient-6)" mask="url(#mask-3)" points="223 191.733087 450.329102 65.8807178 576.257402 79.3950808 492.31032 317.596676 273.228727 242.228466"></polygon><polygon id="Path-2" fill="url(#linearGradient-7)" mask="url(#mask-3)" points="216.636614 123.255227 206 -23 272.994222 -8.35707932 491.546875 58.5039062 292.519531 174.957031"></polygon></g><g id="Group-3"></g><g id="Group-14" transform="translate(93.000000, 93.000000)"></g></g></g></svg>